<?xml version="1.0" encoding="utf-8"?>
<!-- Generator: Adobe Illustrator 16.0.0, SVG Export Plug-In . SVG Version: 6.00 Build 0)  -->
<!DOCTYPE svg PUBLIC "-//W3C//DTD SVG 1.1//EN" "http://www.w3.org/Graphics/SVG/1.1/DTD/svg11.dtd">
<svg version="1.1" id="Layer_1" xmlns="http://www.w3.org/2000/svg" xmlns:xlink="http://www.w3.org/1999/xlink" x="0px" y="0px"
	 width="239px" height="239px" viewBox="-13.5 5.15 239 239" enable-background="new -13.5 5.15 239 239" xml:space="preserve">
<circle cx="106" cy="124.65" r="119.5"/>
<g>
	<defs>
		<path id="SVGID_1_" d="M106,248.303c70.611-64.164,103.921-147.162,105-231.737c-31.781,5.181-68.167,0.301-105-15.569
			C69.167,16.866,32.782,21.746,1,16.566C2.078,101.135,35.39,184.129,106,248.303"/>
	</defs>
	<defs>
		<path id="SVGID_2_" d="M44.044,59.453c-2.751,3.47-4.4,7.846-4.4,12.615c0,11.244,9.117,20.361,20.361,20.361
			c6.633,0,12.509-3.183,16.223-8.095l-7.66-3.174c-2.238,2.112-5.247,3.416-8.567,3.416c-6.908,0-12.505-5.601-12.505-12.508
			c0-1.854,0.415-3.606,1.14-5.185l9.205-1.711L44.044,59.453z M106,77.648c-9.132,18.134-26.959,33.096-49.935,42.906
			c26.683,11.3,48.105,49.781,49.935,87.43c1.84-37.649,23.25-76.13,49.941-87.43c-22.58,7.08-40.73,20.361-49.941,36.541V77.648z"
			/>
	</defs>
	<clipPath id="SVGID_3_">
		<use xlink:href="#SVGID_1_"  overflow="visible"/>
	</clipPath>
	<clipPath id="SVGID_4_" clip-path="url(#SVGID_3_)">
		<use xlink:href="#SVGID_2_"  overflow="visible"/>
	</clipPath>
	<circle clip-path="url(#SVGID_4_)" fill="#FFFFFF" cx="91.105" cy="133.718" r="133.333"/>
</g>
</svg>
