<?xml version="1.0" encoding="utf-8"?>
<!-- Generator: Adobe Illustrator 23.1.1, SVG Export Plug-In . SVG Version: 6.00 Build 0)  -->
<svg version="1.1" id="Layer_1" xmlns="http://www.w3.org/2000/svg" xmlns:xlink="http://www.w3.org/1999/xlink" x="0px" y="0px"
	 viewBox="0 0 875 875" style="enable-background:new 0 0 875 875;" xml:space="preserve">
<style type="text/css">
	.st0{
		fill:none;
		stroke:#000000;
		
		stroke-miterlimit:10;
		stroke-dasharray:11000;
		stroke-dashoffset:11000;
		animation: draw 5s ease-in-out;
		animation-fill-mode: forwards;
	}

	@keyframes draw {
		0%, 25% {
			stroke-dashoffset:11000;
		}
		100% {
			stroke-dashoffset:0;
		}
	}
</style>
<path class="st0" d="M451.5,846.6c-15.7,0.3-6.3-2.5,8-2.1c84.4-4.5,167.7-34,234.1-87.7v0c0.7-0.1,1.1-0.6,2.3-1.8
	c54.1-43.1,98-101,123-166.5l0,0c0.8-1,2-3.6,4-10.5l0,0.1c6.2-1.6,36-144.4,19.5-100C784.9,583.7,731.9,571.7,709,602
	c-4.8,5.8-17.6,7.6-16.5,14.1c1.7,3.9,5.2,6.7,2.7,12.7c-24.1-61.6-72.6,28.7-22.8,16.4c2.3-2.3,5-9.5,1-12.2
	c-1.4,3.5-7.1,9.2-11.7,3.5c-6.5-7.6,6.4-22.2,14.1-11.3c-20.4-7.2-11.8,25.7-3.9,3.3c11.3,4.4,6,23.4-8.2,22.1
	c-9.2-1-13-10.1-20.2-16.2c5.7-0.9,1.2-7.1-6.2-3.3c-0.3,0-4.3,17.8-4.4,7.6c6.1-13.2-13.3-33-23-11.6c0.1,5.4-1.7,13.2,6.4,2.5
	c1.5-1.1,10.9,4.5,5.2,5.6c-11.2-2.7,0.7,8.7-4.4,8.5c-31.2-12.4,25.2-41.1-10.3-60.2l0,0c-19.2-8.3-25.8,30.7-1.9,18.9
	c5.1-6.6-15.9,3.2-6.9-11c-1.2,11.5,12.3-2.3,9.5,10.7c-7.6,10.1,0.9,7.5-14,7.3c-10.4,12-24.7-26.4-37.8,10.2
	c7.8,38.4,39.5-17,11.3-0.8c5.7-0.4,6.5,14.6-0.2,3c-12.5,1.4,3.4-17.8,13.2-5.2c3.3,4.6,1.1,8.1,0.2,13.7c8.2,5.2,9.8,13.1,13,23.3
	c-13.2-14-37.2-1.6-27.8,19.9c3.9,10.9,27.1,9.1,18.3-5.1c-4.3-8.5-7.6,13.2-7.9,1.6c-8.5-6.9,13.4-13.2,12.5,5.8
	c1.6,8.8-23.8,12.6-25.6,3.2c-0.9-27-33.5-27.2-40.2-3.8c-3.1,18.8,24.9,27.3,27,8.5c-9.7-10-5.5-6.3-10,3.9
	c-4.4,4-11.2-6.6-2.2-3.3c-6.9-14.8,19.4-12.2,14.8,5.8c-8.4,17.5-34.4,2.4-44-10c-9.3-11.1-8.2-29.8-23.8-36.7
	c-29.3,0.9-2.8,44.7,6.5,15.2c-1-9.7-13.4,17.2-15.9-3.7c7.4,10.9,6.9-1.5,12.7-2c11.8,4,1,10.3,4.7,20.8c-3.1-1.7-2.1,0.9-5.4,1.2
	c-0.2-5.4-6.3-2-13.5-6.7l0,0c-32.9-45.1-115.2,37.3-66.4,83.8c54.1,52.3,95.4-42.1,45.6-38.6c-3-1.9-8.6,23.7-7.2,5.8
	c13.8-34.9,66.5,27.6,0.9,50.1c-43.3,7-71.6-44.7-50.8-81.8c0-10.6,57-44.6,30.7-34.8c4.1-5.7,8.7-48-21.2-47.3
	c-17.8,1.2-18.9,35.7,3.7,25.3c4.6-3.3,1.6-13.4-3.3-9.8c1,2.3-1.3,7.3-5.5,4.5c-0.6-4.7,9.6-16,13.9-0.2
	c9.7,21.6-36.8-5.8-34.5,24.8c12.3,25.1,32.2-11,7.7-2c-0.2,5.5,2.9-4,5.6,0.7c-3,1,4.4,5.1-3.2,6.4c-9.3,0.3-4-15.1,4.1-12
	c6.2,3,16.5,8,8.3,14.5c-7.4,7.9-25.7,2.6-33.9-6.5c-32.4-50.1-100.1-42.8-94.4-1.4c-25.5,25.1,12.5,66,43.6,55.1
	c58.5-23.2-7.4-78.7-10.2-32.1c-1-0.5-0.8,0.1-2.4-2.2c-4.5-43.3,75.8-2.4,18.9,35.5c-28.3,13.2-60.6-11.6-62.7-43.1
	c-8.8,0.1-19.9,1.3-28-6.8c-24.5-23.3,13.1-37.2-14.1-35.9c-77.2-12.1-50.4-118.6,12.7-101.6c-2.5-2.3-13.7-41.3-4.6-18.9
	c7,26.9,16.6,16.6,32.9,36.5c7.5,27.2,70.6,29.8,56.2,32.8c-16.9-1.5-35.1-9.6-51.4-16.9c-0.6,8.8-7.4,25.3-20.9,21.5
	c-1.5-1-5.8-1.2-4.5-4.5c11.7-4.9,5.6-26.6-9.9-15.6c-11.3,12.7,0.4,35.1,18,33.8c9.1,5.5,17.6-57.3,52.2-5.7
	c7.9-5.5,20.9-10.8,29.3,0.1c0.1,0.3,6.3,7.9,1.1,6.5c-3.4-6.7-22.7-1.1-9.3,6.9c10.4,0,24-3.4,32,7.2c4.9,9.8,14.9,43,31.4,29.1
	c-4.9-10.5,4.6-30.1-7.3-37.1c7.2-6.5-8.3-14.9-15.4-18.2c8.6-5.6,20.5,18.2,23,8.3c3.8-31.8,31.7-31.1-9.5-49.2
	c2.1-4,21.7,6.1,26.6,14.9c32.9,5.8-7.6-45.2-64.1-25v0c-51.5,19.1-138.6-21.4-66.4-70.3c-25.6-15.8-36-0.7-46.9,26
	c-3.2-12.8,13.9-29,25-38.1c-6.6-11.5-6.1-28.8,6.4-38.5c0.8-0.9,14-7.3,10.8-1.3c-22,13.9,12.8,28.6,7.9-2
	c16.3,10.5-19.8,38.5-18.4,10.2c-32.8,28,41.3,68.3,58.7,8.4c-0.8-116.7-129.2-74.1-124.5-0.1c-10.2,34.7,2.6,24.1,13.8,50
	c5.9,13.9,2.8,29.1-5.6,42c-30.9,35.2-82.4-1.8-55.9-35.1c1.3-0.8,3.9-3,3.4,2.6c-2.8,10.4,11.4,17.1,15.8,3.8
	c-0.4-1.9-1.4-10.9,3.9-1c8.8-4.9-4.8,22.1-19.6,10.3c-12.6-16.7-8,22.1,11.4,27.4c21.3,11.4,50.5-13.2,46.9-37.9
	c-18.6-49-21.8-28.5-55.3-22.6c-8.3,0.5-14.5-5.6-23.1-5.3c-16.2,12.4-29.6,33.5-26.2,56.2c0.2,5.7,5.7,25,0.1,13.5
	c-6.6-7.8,0.4-54.5-5.6-26.1c0.3,2.2-2,9.5-2.2,1.7c2.7-16.4-0.7-3.1-17-8.4c-8.9-3.5-24.4-20.1-11.6-28.3
	c1.4,4.9,5.5,11.3,13.7,9.7c-0.9,5.8-8.7,1-14.7-2.8c-2.4,12.9,17.8,25.7,30.7,16.3c40.9-24.9,2.8-74.5-37.3-46.6l0,0
	c-7.1,4.9-16.7,12.8-21.1,22c-27.2,38.9,22.6,110.6,9,74.6c2.8,0.9,2,6.8,7,3.9c5.9-4.7,23.8-7.8,6.1,6c5-15.5-20.8,6.4-9.6,31.7
	c0.4,2.2,12.4,14.7,12.2,8.2c-3-1.8-11.4-9-8.1-13.1c1.6,0.1,0.3,3.1,5.9,8.1c7.9,4.7-2.4-4.1,0.7-7.1c8.1,12.6,0.9-17.8,42.9-34.5
	c59.1-18,87.1,44,51,75.9c-60.1,29.5-46.4-70.5-34.3-25.4c2.2,2.5,7.9,2.3,10.4-2.1c4.9,0.1-6.7,17.4-16.2-1.2
	c-10.7,17.8,25,45.3,42.5,22.1c39.2-59.4-42.1-94.6-80.9-46.3c-23.9,38-12,119.2,78.1,105.2c-7,11.1-53.5-4.6-39.3,8.7
	C183,775.4,298.7,838.9,422.4,844c3.2,1.8,22.9-0.5,13.5,3c-88.2,0.4-175.4-32.1-245.7-86c-32.9-25.8-61.1-55-84.9-89.9
	c-30.7-15-46.3-38.5-46.4-71.1c4.4-16.1-27.7-12-15.6-48.9c-2.6-11.1-17.4-25.6-17.7-41.4c-7.8-31,10.2-48.5,6.4-75.7
	c8.2-369.8,443-537.4,698.3-286.8C987.8,409.8,806.6,836.4,451.5,846.6z M371.5,249.6c-9.5,17,3.9,34-14.1,48c11-3.5-7,3.2-5,26
	c-3.4-6.2-2.8,1.8-7.2,5.9c5.1-8.1-2.6-45.4-12.6-55.5c12.8-10.9-2.3-84.6-37.4-56.1c4.3-9,13.7-9.8,23.7-8.3
	c4.5-0.9-8.6-37.5-24.1-17.1c-3.3-1.8-8.1,41.2-3.5,38.2c-1-1.7,3.5-16,3.7-7c-3.7,15.4-5.7,32.7-0.8,50.4
	c-2.8,0.6-2.2,18.9-4.7,4.3c2.6-12.8-17.6-119,25.3-90.1c12.5,27.2,27.8,53.8,26.5,86.4c1.7,7.7,3.3,12.8,6.9,24.4
	c2.8,18.1,2.2,0.5,15.9-15c-4.3-26.2,23.9-58.4-7.6-74.9c-2.7-3.2,1-6.8,3.8-10.7c-3.5-5.3-2.5-13.1-5.1-20.5
	c-10-4.2-24.8-1.8-36-9.2c-14.2-12.3-41.2-23.9-1.6-31.7c16-3.8,37.6,1.1,0.2-13.1c-17-8.8-22.2-12.9-28.4-30.9
	c-6.6-4.3-21.5-12.2-12.3-23.4c3.2-9.6,52.7,19.3,46.9,9.4c-5.5-7.4,2.3-30.6-12.5-26.5c-164.4,54.6-286,220.3-275.6,398.5
	c21.1-21.8,24.1-19.6,54.9-24.2c1.4-15.4,10.4-26.4,22.6-37c62.5-45.1,68.1,31,83.8-9.7c21.9-29.2,64-50.4,98-26
	c7.6,3.5-4.3-27.7,1.6-37.7c3.2,5.7,5.8,75.2,13.6,60.4c1,0.3-1.4,14.5,3.5,4.2c3.1-6.6-1.5,6.9,4.3,23.9c3.4,9.2-4.1,27.5-11,36.5
	c-0.4,0.8-10.9,6.3,0.5,10.8c20.8-21.1,53.6,3.2,38.5,29c19.3,0.3,20.1-1.4,38.3,8.3c-6.7-18.8-31.6-20.5-28.4-30
	c34,15.2,47.5,60.8,67.8,95.1c9.4,18.9-6.9,52,20.7,61.9c22.6,32.8,110.6-39.8,107.6-71.5c-4.9-9.6-17.7-83.8-17.1-30.9
	c-11.7-60.7-7.8-134.9-9.6-206.9c-10-25.4-20.2-53.2-32-80.2c0.9,6.4-5.1,11.7-1.7-4.4c-5.5-0.4-0.1-0.7-4.8-8.6
	c-5.7-1.5-49.9-38.9-45-9c-3.9-24.3-3-9.5-34.5-16.5c21.4-4.8,49,4.9,68.1,12.8c-4.2-5.8-12.9-34.2-15.6-17.4
	c-1.1-2.9,0.2-7.9-2.2-12.8c-14.1-17.4-43.7-23.5-62.8-34.6c-1.6,1.5,1.2,4.8-0.1,9.1c-0.8,0.2-1.9-8.8-2.5-3.8
	c2,8.8-2.2-0.3-4.3-7.4c-10.4,3.1-23.6,0.7-35.4,4.6c1.9,2.3,4.8,5.7,3.6,10.6c-2.7-18.6-40-11.3-56.6-3.6c2.8,17,36.8,12.4,56,6.4
	c-3.8,7-12.5,5.3-38.1,8.7c2,13.5,59.8,17.6,74,7.1c10.1-1.8-10.2,6.7-12.4,8.3c6.9,5.6,16.2,8.3,26.5,12.3c0.1,0.9,0,0,0.8,2.1
	c-9.7,5.7-31.4,5.1-47.1,13.1c-6.9,14.4,31,8,44.1,5.9c-4.2,6.5-38.3,0.9-23.5,12.9c-1.3,0.5-0.9,1.1-3.5-0.6
	c-8-5.8,4.6,15.4-3.7,27.2l0,0C372.1,248.7,371.7,248.9,371.5,249.6z M130.9,450.5c10.4,8.3,30.6,6.4,42.4-3.8l0,0
	c11.5-6.9,17.6-33.9,11.5-48.1l0,0c-22.3-42.2-91.6-11.3-91.4,31.5c9.6,6.8,18.2,12.2,19.3,29.9c-0.1,2.3,7.3-3.5,11.5-9.3
	c-14.3-15.3-2.6-50.2,22.8-40.1c0,0-0.2,0-0.2-0.1c0.6,3,9.6,7,7.5,12.5c-3.5-1.8-8-3.4-13.8-0.4c-1.3-4.7,7.2-2.6,8.8-5.1
	c-19-18.7-42.3,19-19.5,32.2l0-0.1C130,450.2,130.4,450.5,130.9,450.5L130.9,450.5z M285.4,568.6c-16.3-13.6-38,11.5-23.6,28.7
	c5.5,7.4,25-2.6,13.3-10.7c-8.2,0.9-6-5.2,3.4-1.4c7.2,5.3,1.5,18.3-9.3,17.1c-12.8,2.8-9.7-17.6-21.5-12c-29.2,3.9-36-49.1-6-41.5
	c8.2,3.3,6.8,13.5,3.5,20.5c16.4,3.4,19.5-22.7,9.5-34.4c-69.2-62.9-125.1,73-32.2,82.1c4.5-0.2,4.8-0.6-1.5-4.4
	c4.7-0.2,6.5,1.9,14.5,1.5c-3.1-1.8-7.1-1.7-12.3-3.6c3.5-2.4,9.5,1.1,15.5,0.7c-16.3-4.5,19.9-3,25.6,0.8
	c-77.9,3-9.6,84.2,6.8,32.1c0.6-13.1-18.5-16.7-18.2-0.5c9.3-9.3,18.1,10,1,6.1c-0.9,2.1-24.4-20.2,13.1-19.2
	c2.4,1.7,4.7,2.3,7.9-2.7c16.2-17.1,44.2-19,65.7-7.7c2.5-0.7-10.2-8.5-2.5-7.1c8.7,7.6,12,18.6,24.6,26.5c3.2,2.9,22.1,8,7.1-1.2
	c23.1,3.8-14.9-8-19.3-16.5c-7.8-10.5-2.6-6.1,4.6-0.2c-0.2-6.7-1.3-16-9.5-21.1c-10.9-6.8-53.1,1.2-22.3-20.5
	c-11.9-6.9-33.6,5.5-16.4,20.5c0.9,0.6,5.3,3.8,1.2,3.5C293.2,597.9,299.6,577.3,285.4,568.6z M388.1,495.5c0.1,0-0.1,0.4,0.5,0.4
	C388.7,495.6,388.5,495.4,388.1,495.5C388.3,491.2,380.9,488.4,388.1,495.5z M592.6,582.1c20.9-9.4,32.7,11.7,28,33.2
	c6.3,0.1,12.5,3.2,15.3,11.3c10.5,2.8,12.7,3.9,17.9-13.9c-16.2-9.6-41.6-33.2-31.7-52.8c2.7,32.4,22.6,53.9,56.4,46.4
	c9.1,3.3,8.6,6.9,22.3-2.5c54.6-33,36.9-131.4-28.6-137c-1.3-0.8-2.1-0.8-4.8-0.9l0,0c-16.5-7.3-56.7,5.1-71.1,20.1
	c-19.9,17.5-35.4,46.7-33.1,75.3c3.9,18.8,2,47.4,27.1,46.2C583.7,601.7,584.1,588.3,592.6,582.1z M302.7,100.3
	c-0.1,0.3-10.1-8.2-7.3-0.2c19.3,33.4,64,25.8,56.5,30.5c0.5,0.6,4.6-0.8,4.6,1.1c-16,4.4,18.5,2.5,30.6-0.8
	c16.3,3.7,31.7,14.9,49.4,20.6c-11.5-25.3-47.2-33.2-69.5-52.3l0,0c-9.4-2.4-18.7-13.5-32.7-10.5C343,103,318.7,111.2,302.7,100.3z
	 M382.9,495c-15.7-18.1-38.6-4.2-55.8-20.1c-7.8-8.2,4.9-23.3,10.7-11.6c0.5,3.1-5.9,8.7-6.5,2.8c5.6-0.9-0.2-8.1-3.5,0.3
	c-1.2,16.2,25.7,17.6,16.5-8.9c-15.7-17.7-34.3-11.8-35.6,9.8c-19.2-24.2-55.7-8-61.3,20.1c11.6,81.5,125.2,0.3,161.7,46.1
	C404,521.6,394.4,506.2,382.9,495z M329.8,54.1l-0.2-0.2c-1-6.5-24.1-15.6,4.9,15.5c-13.3-9-12.9-4.2-5.3,12.7
	c21.4,3.8,37.8,15.4,57.2,26.4c-12-14.2-15.8-19.7-31.1-29.9c0.3,0.1,0.4-7-1.6-1.4C352.6,72.1,340.3,60,329.8,54.1z M398.6,558.6
	c-2.4-3.5-26.9,45.8-4,31.2C445.5,565.3,408.4,539,398.6,558.6z M392.8,191.3c0.8,0,3.8-0.4,6.9-1.3c-14.4-6.9-56.1-32.2-35.1,7.5
	C372.8,197.1,381.9,192.3,392.8,191.3z M278.1,72.4c-7.3,9.2,18.5,21.6,30.3,27C362.8,114.9,318.8,68.4,278.1,72.4z M787.3,545.4
	c106-81,53.7-234.4-5.8-331.6c-48-76.3-161.5-164.9-247.7-167.5c-3.1-23.8-256.5-17.8-191.7,13.3c33.9,25.7,35.7,45.4,83.7,72.8
	c13.9,7.5,7.1,21.6,31.1,31.5c10.6,11.4,15.8,30.5,26.3,43.8c13.3,2.9,27.8,59.9,36.2,77.9c21,15.3-4.2,166.8,30.5,239.1
	c11.7,50.4,8.2-5.8,36.5-34.7c31.9-34.5,88.2-40.1,126.4-8c24.1,26.4,31.5,66.3,14.1,99.5C739.2,585,775.5,557.5,787.3,545.4z
	 M518.7,678.7c4.1-25.5,23.3-23.6,42.3-20.8c3.9-19.4,28-9.3,23.7-19.6c-6.2-14-20,13.2-31.7-11.1c-5.5-38.2,24.7-1.8,4-57.3
	c-39.1,81.8-68.9,68-57.4,86.2C499.2,660.6,523.5,704.1,518.7,678.7z M431.2,617c4.3,18.4,31.2,44.5,48.6,24.5
	c12.7-4,7.8,16,34.6-12.7c16.3-8.6,56-90.2,35.4-63.2c-14.6,20-36.7,36.3-54.7,54.5c-5.1,3.6-10.8,17.1-20.8,13.8
	c-2.8,3.2-4.2,7.8-10.8,7.3C458.4,645.1,432.2,604.3,431.2,617z M385.1,624.7c-0.2,1.7,0.8,10.7,5.7,5.5c-1.4-3.8-3.1-10.4-0.6-15.6
	c3.2-9,13.2-8.7,11.9-20.4c-0.5-1.5,1.2-4.8-3.3-3C374.9,597.9,388.7,594.5,385.1,624.7z M434.9,632.4c-1.7,27,6.1,16.7,32.5,22.2
	C456.9,649.8,444,644.4,434.9,632.4z M416.1,596.1c4.2-36.3-26.5,7.2-1.3,7.7C416.6,603.2,416.2,600.9,416.1,596.1z M424.6,593.4
	c0,0,0.1,0,0.1,0c-1.8-3,3.2-30.7-7.4-16.1C417.6,581.6,421.4,633.3,424.6,593.4z M458.2,632.7c-0.7,10.2,19.2,3.7,9.3-5.5
	C464.6,625.3,458.1,626.8,458.2,632.7z M303.8,457.1c-0.8-3.3-6.5-11.8-15.6-4C292.4,452.7,299.4,457.4,303.8,457.1z M477.4,624.1
	c-5.3,0-3.2,11,3.8,6.1C482.7,627.7,481.1,624.8,477.4,624.1z M487.3,620c-3.8-0.2-1.9,8.8,2.4,2.5
	C489.5,621.8,489.3,621.1,487.3,620z M456.2,627c-0.3-2.1-6.5-1-4.3,2.7C453.7,631.1,455.5,629.9,456.2,627z M376.3,648
	c-0.1-1.3-4.2-3.7-6.1-2.2C370.8,646.3,375.4,652.3,376.3,648z M448.6,623.5C447.8,625,447,624.9,448.6,623.5
	C449.3,621,442.3,621.8,448.6,623.5z M444.3,618.9C443.9,620.1,443.3,620.1,444.3,618.9C445,617.9,440.2,617.5,444.3,618.9z
	 M492.8,616.4C493.8,617.1,493.6,617.7,492.8,616.4C491.8,616.1,490.7,620,492.8,616.4z M357.5,78.5C357.9,78.9,358,79.1,357.5,78.5
	C356.8,78.3,356.6,80.9,357.5,78.5z M345.2,298.7C345.4,298.5,345.5,298.4,345.2,298.7C344.7,299.2,347.6,299.9,345.2,298.7z
	 M256.5,408.8l-0.3-0.2l0,0.3L256.5,408.8z"/>
</svg>
