<svg id="Layer_1" data-name="Layer 1" xmlns="http://www.w3.org/2000/svg" viewBox="0 0 2587.96 1604.33"><defs><style>.cls-1{fill:#ffd711;}.cls-2,.cls-5{fill:#fff;}.cls-3{fill:#e0d6f7;}.cls-4{fill:none;stroke:#ffd711;stroke-linecap:round;stroke-width:59.98px;}.cls-4,.cls-5{stroke-miterlimit:10;}.cls-5{stroke:#fff;stroke-width:16.94px;}</style></defs><title>Grade Aid</title><path class="cls-1" d="M834.88,435.31c0,166.73-124.12,282.52-305.67,282.52-189.88,0-319.56-130.61-319.56-321.42S339.33,75,529.21,75c108.38,0,195.45,41.69,249.17,110.23,5.56,7.41,9.26,15.75,9.26,25,0,17.6-13,31.49-32.42,31.49-12,0-21.3-5.55-26.86-13-43.53-57.43-113-91.71-199.15-91.71-149.13,0-251,105.6-251,259.36s101.88,259.36,251,259.36c135.24,0,227.87-79.66,239.91-201h-163c-21.3,0-34.27-11.12-34.27-30.57,0-20.38,13-31.49,34.27-31.49H797.83c23.16,0,37,13.89,37,38Z" transform="translate(-209.65 -52.76)"/><path class="cls-1" d="M1186.86,288c0,20.37-13,31.49-31.49,31.49-104.67,0-163,63.91-163,193.59V678c0,21.3-12,34.27-31.49,34.27-20.38,0-32.42-13-32.42-34.27V294.52c0-22.23,12-34.27,32.42-34.27,19.45,0,31.49,12,31.49,34.27v50h1.85c30.57-56.5,85.22-87.07,161.18-87.07C1173.89,257.47,1186.86,267.66,1186.86,288Z" transform="translate(-209.65 -52.76)"/><path class="cls-1" d="M1671.29,294.52V678c0,21.3-11.11,34.27-31.49,34.27s-32.42-13-32.42-34.27V634.46h-1.85c-35.2,52.8-97.26,83.37-176.92,83.37-133.38,0-223.23-92.63-223.23-231.57s89.85-231.57,223.23-231.57c79.66,0,141.72,30.57,176.92,83.37h1.85V294.52c0-22.23,12-34.27,32.42-34.27S1671.29,272.29,1671.29,294.52Zm-63.91,191.74c0-102.82-69.47-174.14-168.58-174.14-100,0-168.58,70.4-168.58,174.14S1338.76,660.4,1438.8,660.4C1537.91,660.4,1607.38,590,1607.38,486.26Z" transform="translate(-209.65 -52.76)"/><path class="cls-1" d="M2237.23,87V678c0,21.3-11.11,34.27-31.49,34.27s-32.42-13-32.42-34.27V634.46h-1.85c-35.2,52.8-97.26,83.37-176.92,83.37-133.38,0-223.23-92.63-223.23-231.57s89.85-231.57,223.23-231.57c79.66,0,141.72,30.57,176.92,83.37h1.85V87c0-22.23,12-34.28,32.42-34.28S2237.23,64.81,2237.23,87Zm-63.91,399.22c0-102.82-69.47-174.14-168.58-174.14-100,0-168.58,70.4-168.58,174.14S1904.7,660.4,2004.74,660.4C2103.85,660.4,2173.32,590,2173.32,486.26Z" transform="translate(-209.65 -52.76)"/><path class="cls-1" d="M2756.86,508.49H2403c10.19,90.77,76,151.91,173.22,151.91,59.28,0,107.44-23.16,136.16-60.21a32.41,32.41,0,0,1,25.93-13c17.6,0,29.64,12,29.64,29.64,0,7.41-1.85,13-6.48,19.45-39.83,51-106.52,81.52-185.25,81.52-143.57,0-239-93.56-239-231.57s95.41-231.57,233.42-231.57c131.53,0,226.94,91.7,226.94,214.9C2797.62,494.6,2782.79,508.49,2756.86,508.49Zm-352-55.58h332.53c-13-84.29-76.88-140.79-166.73-140.79C2481.76,312.12,2417.84,368.62,2404.88,452.91Z" transform="translate(-209.65 -52.76)"/><path class="cls-2" d="M2024.22,1284.39v311.23c0,23.15-13,37.05-34.28,37.05-20.37,0-33.34-13.9-33.34-37.05V1431.67H1533.29v164.87c0,22.23-13,36.13-33.34,36.13-21.31,0-33.35-13.9-33.35-36.13V1284.39c0-187.11,100-289,278.81-289C1923.25,995.39,2024.22,1097.28,2024.22,1284.39Zm-67.62-1.85c0-149.13-74.1-225.09-212.12-225.09-137.08,0-211.19,76-211.19,225.09v87.07H1956.6Z" transform="translate(-209.65 -52.76)"/><path class="cls-2" d="M2130.72,1047.27c0-24.09,15.75-40.76,39.83-40.76,23.16,0,38.9,16.67,38.9,40.76,0,23.15-15.74,39.82-38.9,39.82C2146.47,1087.09,2130.72,1070.42,2130.72,1047.27ZM2202,1214.92V1598.4c0,21.3-12,34.27-31.49,34.27-20.38,0-32.42-13-32.42-34.27V1214.92c0-22.23,12-34.27,32.42-34.27C2190,1180.65,2202,1192.69,2202,1214.92Z" transform="translate(-209.65 -52.76)"/><path class="cls-2" d="M2768,1007.44v591c0,21.3-11.11,34.27-31.49,34.27s-32.42-13-32.42-34.27v-43.54h-1.85c-35.2,52.8-97.26,83.37-176.92,83.37-133.38,0-223.23-92.63-223.23-231.57s89.85-231.57,223.23-231.57c79.66,0,141.72,30.57,176.92,83.36h1.85v-251c0-22.23,12-34.28,32.42-34.28S2768,985.21,2768,1007.44Zm-63.91,399.22c0-102.82-69.47-174.14-168.58-174.14-100,0-168.58,70.4-168.58,174.14s68.54,174.14,168.58,174.14C2634.6,1580.8,2704.07,1510.4,2704.07,1406.66Z" transform="translate(-209.65 -52.76)"/><circle class="cls-3" cx="645.13" cy="1257.84" r="244.2"/><path class="cls-4" d="M1156.7,1215.86a314.92,314.92,0,0,1-1.52,194.13C1100.29,1575.9,921.3,1665.9,755.4,1611s-255.91-233.88-201-399.79,233.88-255.9,399.79-201" transform="translate(-209.65 -52.76)"/><path class="cls-5" d="M1184.76,1042.54c5.52,0,9.3,3.49,9.3,8.44,0,5.52-3.78,8.43-9.3,8.43h-64.55V1124c0,5.52-3.49,9.3-8.44,9.3-5.52,0-8.43-3.78-8.43-9.3v-64.55h-64.55c-5.52,0-9.3-2.91-9.3-8.43,0-5,3.78-8.44,9.3-8.44h64.55V978c0-5.52,2.91-9.3,8.43-9.3,5,0,8.44,3.78,8.44,9.3v64.55Z" transform="translate(-209.65 -52.76)"/></svg>