<?xml version="1.0" encoding="utf-8"?>
<!-- Generator: Adobe Illustrator 16.0.0, SVG Export Plug-In . SVG Version: 6.00 Build 0)  -->
<!DOCTYPE svg PUBLIC "-//W3C//DTD SVG 1.1//EN" "http://www.w3.org/Graphics/SVG/1.1/DTD/svg11.dtd">
<svg version="1.1" id="Layer_1" xmlns="http://www.w3.org/2000/svg" xmlns:xlink="http://www.w3.org/1999/xlink" x="0px" y="0px"
	 width="3561px" height="3561px" viewBox="-530.5 -530.5 3561 3561" enable-background="new -530.5 -530.5 3561 3561"
	 xml:space="preserve">
<circle fill="#F9DC5C" cx="1250" cy="1250" r="1780.5"/>
<path fill="#323330" d="M2295.39,1903.755c-18.299-114.068-92.681-209.839-312.976-299.192
	c-76.521-35.171-161.834-60.358-187.262-118.346c-9.03-33.745-10.219-52.757-4.516-73.194
	c16.397-66.302,95.532-86.977,158.27-67.966c40.399,13.546,78.66,44.68,101.711,94.345
	c107.891-69.864,107.652-69.392,182.985-117.394c-27.566-42.775-42.301-62.502-60.361-80.798
	c-64.876-72.481-153.279-109.791-294.677-106.939c-24.478,3.089-49.189,6.414-73.669,9.506
	c-70.578,17.823-137.833,54.896-177.281,104.563c-118.347,134.269-84.601,369.294,59.41,466.017
	c141.873,106.464,350.285,130.704,376.901,230.276c25.903,121.91-89.589,161.356-204.373,147.338
	c-84.601-17.585-131.651-60.599-182.509-138.783c-93.629,54.183-93.629,54.183-189.874,109.554
	c22.813,49.904,46.813,72.48,85.076,115.731c181.083,183.698,634.266,174.667,715.541-103.374
	C2291.112,2065.59,2312.978,2001.901,2295.39,1903.755z M1359.078,1149.002h-233.841c0,201.996-0.948,402.566-0.948,604.563
	c0,128.564,6.654,246.436-14.258,282.557c-34.221,71.053-122.861,62.263-163.261,48.477c-41.112-20.199-62.024-48.954-86.265-89.588
	c-6.653-11.645-11.645-20.676-13.31-21.389c-63.448,38.736-126.664,77.707-190.114,116.445
	c31.608,64.877,78.185,121.197,137.832,157.792c89.116,53.47,208.889,69.867,334.129,41.112
	c81.511-23.764,151.851-72.953,188.686-147.811c53.231-98.146,41.824-216.969,41.35-348.385
	C1360.267,1578.422,1359.078,1364.068,1359.078,1149.002L1359.078,1149.002z"/>
</svg>
