<?xml version="1.0" encoding="utf-8"?>
<!-- Generator: Adobe Illustrator 16.0.0, SVG Export Plug-In . SVG Version: 6.00 Build 0)  -->
<!DOCTYPE svg PUBLIC "-//W3C//DTD SVG 1.1//EN" "http://www.w3.org/Graphics/SVG/1.1/DTD/svg11.dtd">
<svg version="1.1" id="Layer_1" xmlns="http://www.w3.org/2000/svg" xmlns:xlink="http://www.w3.org/1999/xlink" x="0px" y="0px"
	 width="360px" height="360px" viewBox="0 0 360 360" enable-background="new 0 0 360 360" xml:space="preserve">
<circle fill="#303030" cx="180" cy="180" r="180"/>
<path fill="#E90575" d="M267.262,302.608h-36.295c-7.75,0-16.99-3.828-22.469-9.309l-72.493-72.487
	c-3.919-3.918-6.077-9.137-6.077-14.693s2.159-10.776,6.079-14.694L244.025,83.404l-13.469-0.012
	c-0.994,0.059-3.332,1.026-4.117,1.724l-60.373,60.376l-18.385-18.385l60.414-60.414c5.477-5.478,14.711-9.301,22.463-9.301h0.02
	l37.037,0.031c7.447,0.008,13.385,3.617,15.881,9.654c2.496,6.036,0.844,12.783-4.424,18.047l-120.99,120.995l68.798,68.796
	c0.746,0.662,3.092,1.633,4.143,1.694h12.633l-70.251-70.252l18.384-18.386l86.943,86.943c5.268,5.269,6.918,12.016,4.418,18.053
	C280.648,299.004,274.711,302.608,267.262,302.608 M126.708,184.842l4.667-4.664l-18.381-18.39l-0.141,0.14l-9.336-9.333
	l8.061-8.058l27.488,27.485l18.383-18.386l-31.178-31.174c-8.101-8.101-21.283-8.101-29.385-0.002l-15.445,15.441
	c-3.92,3.918-6.078,9.136-6.08,14.692c0,5.556,2.158,10.774,6.078,14.694L98.157,184c4.209,4.209,9.685,6.332,15.049,6.332
	C118.168,190.332,123.036,188.513,126.708,184.842"/>
<rect x="-97.5" y="50" fill="none" width="793" height="313"/>
</svg>
