<?xml version="1.0" encoding="utf-8"?>
<!-- Generator: Adobe Illustrator 16.0.0, SVG Export Plug-In . SVG Version: 6.00 Build 0)  -->
<!DOCTYPE svg PUBLIC "-//W3C//DTD SVG 1.1//EN" "http://www.w3.org/Graphics/SVG/1.1/DTD/svg11.dtd">
<svg version="1.1" id="Layer_1" xmlns="http://www.w3.org/2000/svg" xmlns:xlink="http://www.w3.org/1999/xlink" x="0px" y="0px"
	 width="3393px" height="3393px" viewBox="-561.749 -446.735 3393 3393" enable-background="new -561.749 -446.735 3393 3393"
	 xml:space="preserve">
<circle fill="#303030" stroke="#000000" stroke-miterlimit="10" cx="1134.751" cy="1249.764" r="1696.5"/>
<g>
	<path fill="#8CC84B" d="M1032.837,31.738c61.72-35.328,142.11-35.488,203.776,0c310.239,175.301,620.576,350.328,930.763,525.736
		c58.342,32.863,97.367,97.792,96.772,165.018v1054.681c0.435,70.009-42.446,136.489-103.998,168.608
		c-309.22,174.335-618.28,348.883-927.446,523.218c-62.997,36.02-145,33.245-206.028-5.727
		c-92.704-53.741-185.567-107.217-278.28-160.904c-18.945-11.294-40.302-20.283-53.68-38.652
		c11.826-15.939,32.971-17.926,50.151-24.885c38.696-12.305,74.237-32.057,109.787-51.224c8.989-6.152,19.965-3.794,28.581,1.711
		c79.273,45.452,157.846,92.226,237.385,137.243c16.969,9.796,34.149-3.209,48.653-11.295
		c303.439-171.498,607.251-342.349,910.638-513.9c11.241-5.408,17.456-17.341,16.543-29.654
		c0.212-347.917,0.053-695.896,0.106-1043.813c1.285-13.971-6.8-26.817-19.434-32.535
		c-308.146-173.537-616.134-347.34-924.229-520.922c-10.926-7.512-25.346-7.533-36.294-0.053
		C808.511,348.023,500.576,521.986,192.482,695.515c-12.589,5.727-21.037,18.359-19.539,32.385c0.053,347.916,0,695.896,0,1043.865
		c-1.094,12.306,5.592,23.99,16.755,29.281c82.216,46.623,164.539,92.917,246.808,139.38
		c46.348,24.946,103.254,39.77,154.317,20.656c45.063-16.162,76.649-62.146,75.789-109.991
		c0.426-345.887-0.213-691.826,0.319-1037.66c-1.126-15.354,13.439-28.04,28.369-26.596c39.503-0.266,79.06-0.531,118.563,0.106
		c16.489-0.372,27.837,16.161,25.798,31.632c-0.159,348.076,0.426,696.161-0.266,1044.237
		c0.106,92.766-38.006,193.706-123.813,239.096c-105.709,54.761-236.365,43.147-340.798-9.361
		c-90.408-45.124-176.684-98.378-265.487-146.721C47.589,1913.883,4.92,1847.137,5.354,1777.181V722.491
		c-0.647-68.617,39.929-134.726,100.089-167.11C414.61,380.904,723.724,206.294,1032.837,31.738z"/>
	<path fill="#8CC84B" d="M1302.553,762.322c134.841-8.679,279.193-5.142,400.532,61.286
		c93.945,50.904,146.028,157.739,147.687,262.109c-2.624,14.078-17.341,21.845-30.78,20.878
		c-39.122-0.053-78.254,0.532-117.376-0.266c-16.596,0.638-26.241-14.663-28.324-29.335
		c-11.241-49.938-38.476-99.397-85.479-123.484c-72.154-36.126-155.816-34.309-234.495-33.555
		c-57.438,3.05-119.202,8.022-167.863,41.8c-37.358,25.585-48.706,77.233-35.373,118.829c12.571,29.867,47.048,39.504,75.258,48.387
		c162.5,42.5,334.698,38.271,494.096,94.202c65.992,22.802,130.55,67.128,153.138,136.224
		c29.548,92.606,16.596,203.298-49.291,277.642c-53.431,61.18-131.25,94.478-208.865,112.563
		c-103.253,23.022-210.407,23.607-315.266,13.387c-98.599-11.241-201.205-37.146-277.322-104.326
		c-65.089-56.517-96.88-144.575-93.724-229.566c0.754-14.353,15.044-24.361,28.794-23.183c39.397-0.319,78.795-0.426,118.191,0.054
		c15.736-1.126,27.403,12.473,28.21,27.305c7.27,47.58,25.15,97.518,66.64,125.727c80.071,51.658,180.541,48.121,272.226,49.566
		c75.957-3.369,161.224-4.389,223.209-54.593c32.704-28.635,42.394-76.542,33.555-117.757
		c-9.574-34.796-45.975-51.011-77.233-61.613c-160.417-50.745-334.539-32.332-493.404-89.717
		c-64.495-22.792-126.862-65.887-151.641-132.146c-34.574-93.776-18.732-209.77,54.061-281.604
		c70.975-71.454,173.431-98.972,270.842-108.821V762.322z"/>
</g>
</svg>
